<svg id="visual" viewBox="0 0 2560 1440" width="2560" height="1440" xmlns="http://www.w3.org/2000/svg" xmlns:xlink="http://www.w3.org/1999/xlink" version="1.1"><rect x="0" y="0" width="2560" height="1440" fill="#121212"></rect><defs><linearGradient id="grad1_0" x1="43.8%" y1="0%" x2="100%" y2="100%"><stop offset="14.444444444444446%" stop-color="#7e8ce0" stop-opacity="1"></stop><stop offset="85.55555555555554%" stop-color="#7e8ce0" stop-opacity="1"></stop></linearGradient></defs><defs><linearGradient id="grad1_1" x1="43.8%" y1="0%" x2="100%" y2="100%"><stop offset="14.444444444444446%" stop-color="#7e8ce0" stop-opacity="1"></stop><stop offset="85.55555555555554%" stop-color="#586094" stop-opacity="1"></stop></linearGradient></defs><defs><linearGradient id="grad1_2" x1="43.8%" y1="0%" x2="100%" y2="100%"><stop offset="14.444444444444446%" stop-color="#35374f" stop-opacity="1"></stop><stop offset="85.55555555555554%" stop-color="#586094" stop-opacity="1"></stop></linearGradient></defs><defs><linearGradient id="grad1_3" x1="43.8%" y1="0%" x2="100%" y2="100%"><stop offset="14.444444444444446%" stop-color="#35374f" stop-opacity="1"></stop><stop offset="85.55555555555554%" stop-color="#121212" stop-opacity="1"></stop></linearGradient></defs><defs><linearGradient id="grad2_0" x1="0%" y1="0%" x2="56.3%" y2="100%"><stop offset="14.444444444444446%" stop-color="#7e8ce0" stop-opacity="1"></stop><stop offset="85.55555555555554%" stop-color="#7e8ce0" stop-opacity="1"></stop></linearGradient></defs><defs><linearGradient id="grad2_1" x1="0%" y1="0%" x2="56.3%" y2="100%"><stop offset="14.444444444444446%" stop-color="#586094" stop-opacity="1"></stop><stop offset="85.55555555555554%" stop-color="#7e8ce0" stop-opacity="1"></stop></linearGradient></defs><defs><linearGradient id="grad2_2" x1="0%" y1="0%" x2="56.3%" y2="100%"><stop offset="14.444444444444446%" stop-color="#586094" stop-opacity="1"></stop><stop offset="85.55555555555554%" stop-color="#35374f" stop-opacity="1"></stop></linearGradient></defs><defs><linearGradient id="grad2_3" x1="0%" y1="0%" x2="56.3%" y2="100%"><stop offset="14.444444444444446%" stop-color="#121212" stop-opacity="1"></stop><stop offset="85.55555555555554%" stop-color="#35374f" stop-opacity="1"></stop></linearGradient></defs><g transform="translate(2560, 0)"><path d="M0 1008C-68.7 974.5 -137.4 941 -212.7 932C-288.1 923.1 -370.2 938.7 -437.4 908.2C-504.6 877.7 -556.9 801.1 -568.6 713C-580.3 625 -551.4 525.4 -603.6 481.3C-655.7 437.2 -789 448.6 -855 411.8C-921 374.9 -919.7 289.8 -934 213.2C-948.3 136.5 -978.1 68.3 -1008 0L0 0Z" fill="#23242f"></path><path d="M0 756C-51.5 730.9 -103 705.7 -159.5 699C-216.1 692.3 -277.6 704 -328 681.1C-378.4 658.3 -417.7 600.8 -426.5 534.8C-435.2 468.7 -413.5 394.1 -452.7 361C-491.8 327.9 -591.8 336.5 -641.3 308.8C-690.8 281.2 -689.8 217.4 -700.5 159.9C-711.2 102.4 -733.6 51.2 -756 0L0 0Z" fill="#464b70"></path><path d="M0 504C-34.3 487.2 -68.7 470.5 -106.4 466C-144 461.5 -185.1 469.3 -218.7 454.1C-252.3 438.8 -278.5 400.5 -284.3 356.5C-290.2 312.5 -275.7 262.7 -301.8 240.7C-327.9 218.6 -394.5 224.3 -427.5 205.9C-460.5 187.5 -459.9 144.9 -467 106.6C-474.1 68.3 -489.1 34.1 -504 0L0 0Z" fill="#6b76b9"></path><path d="M0 252C-17.2 243.6 -34.3 235.2 -53.2 233C-72 230.8 -92.5 234.7 -109.3 227C-126.1 219.4 -139.2 200.3 -142.2 178.3C-145.1 156.2 -137.8 131.4 -150.9 120.3C-163.9 109.3 -197.3 112.2 -213.8 102.9C-230.3 93.7 -229.9 72.5 -233.5 53.3C-237.1 34.1 -244.5 17.1 -252 0L0 0Z" fill="#7e8ce0"></path></g><g transform="translate(0, 1440)"><path d="M0 -1008C72 -985.8 143.9 -963.6 213.2 -934C282.4 -904.3 348.9 -867.2 390.1 -810C431.2 -752.8 446.9 -675.6 521.9 -654.4C596.8 -633.2 731.1 -668 788.1 -628.5C845.1 -588.9 824.9 -475 808.2 -389.2C791.5 -303.3 778.2 -245.6 812.1 -185.4C846 -125.2 927 -62.6 1008 0L0 0Z" fill="#23242f"></path><path d="M0 -756C54 -739.4 107.9 -722.7 159.9 -700.5C211.8 -678.2 261.7 -650.4 292.5 -607.5C323.4 -564.6 335.2 -506.7 391.4 -490.8C447.6 -474.9 548.3 -501 591.1 -471.4C633.8 -441.7 618.7 -356.3 606.1 -291.9C593.6 -227.5 583.7 -184.2 609.1 -139C634.5 -93.9 695.3 -46.9 756 0L0 0Z" fill="#464b70"></path><path d="M0 -504C36 -492.9 72 -481.8 106.6 -467C141.2 -452.2 174.5 -433.6 195 -405C215.6 -376.4 223.4 -337.8 260.9 -327.2C298.4 -316.6 365.5 -334 394 -314.2C422.5 -294.5 412.4 -237.5 404.1 -194.6C395.7 -151.7 389.1 -122.8 406.1 -92.7C423 -62.6 463.5 -31.3 504 0L0 0Z" fill="#6b76b9"></path><path d="M0 -252C18 -246.5 36 -240.9 53.3 -233.5C70.6 -226.1 87.2 -216.8 97.5 -202.5C107.8 -188.2 111.7 -168.9 130.5 -163.6C149.2 -158.3 182.8 -167 197 -157.1C211.3 -147.2 206.2 -118.8 202 -97.3C197.9 -75.8 194.6 -61.4 203 -46.3C211.5 -31.3 231.8 -15.6 252 0L0 0Z" fill="#7e8ce0"></path></g></svg>