<svg id="visual" viewBox="0 0 2560 1440" width="2560" height="1440" xmlns="http://www.w3.org/2000/svg" xmlns:xlink="http://www.w3.org/1999/xlink" version="1.1"><rect x="0" y="0" width="2560" height="1440" fill="#121212"></rect><defs><linearGradient id="grad1_0" x1="43.8%" y1="0%" x2="100%" y2="100%"><stop offset="14.444444444444446%" stop-color="#7e8ce0" stop-opacity="1"></stop><stop offset="85.55555555555554%" stop-color="#7e8ce0" stop-opacity="1"></stop></linearGradient></defs><defs><linearGradient id="grad1_1" x1="43.8%" y1="0%" x2="100%" y2="100%"><stop offset="14.444444444444446%" stop-color="#7e8ce0" stop-opacity="1"></stop><stop offset="85.55555555555554%" stop-color="#6771b2" stop-opacity="1"></stop></linearGradient></defs><defs><linearGradient id="grad1_2" x1="43.8%" y1="0%" x2="100%" y2="100%"><stop offset="14.444444444444446%" stop-color="#515786" stop-opacity="1"></stop><stop offset="85.55555555555554%" stop-color="#6771b2" stop-opacity="1"></stop></linearGradient></defs><defs><linearGradient id="grad1_3" x1="43.8%" y1="0%" x2="100%" y2="100%"><stop offset="14.444444444444446%" stop-color="#515786" stop-opacity="1"></stop><stop offset="85.55555555555554%" stop-color="#3c3f5c" stop-opacity="1"></stop></linearGradient></defs><defs><linearGradient id="grad1_4" x1="43.8%" y1="0%" x2="100%" y2="100%"><stop offset="14.444444444444446%" stop-color="#272835" stop-opacity="1"></stop><stop offset="85.55555555555554%" stop-color="#3c3f5c" stop-opacity="1"></stop></linearGradient></defs><defs><linearGradient id="grad1_5" x1="43.8%" y1="0%" x2="100%" y2="100%"><stop offset="14.444444444444446%" stop-color="#272835" stop-opacity="1"></stop><stop offset="85.55555555555554%" stop-color="#121212" stop-opacity="1"></stop></linearGradient></defs><defs><linearGradient id="grad2_0" x1="0%" y1="0%" x2="56.3%" y2="100%"><stop offset="14.444444444444446%" stop-color="#7e8ce0" stop-opacity="1"></stop><stop offset="85.55555555555554%" stop-color="#7e8ce0" stop-opacity="1"></stop></linearGradient></defs><defs><linearGradient id="grad2_1" x1="0%" y1="0%" x2="56.3%" y2="100%"><stop offset="14.444444444444446%" stop-color="#6771b2" stop-opacity="1"></stop><stop offset="85.55555555555554%" stop-color="#7e8ce0" stop-opacity="1"></stop></linearGradient></defs><defs><linearGradient id="grad2_2" x1="0%" y1="0%" x2="56.3%" y2="100%"><stop offset="14.444444444444446%" stop-color="#6771b2" stop-opacity="1"></stop><stop offset="85.55555555555554%" stop-color="#515786" stop-opacity="1"></stop></linearGradient></defs><defs><linearGradient id="grad2_3" x1="0%" y1="0%" x2="56.3%" y2="100%"><stop offset="14.444444444444446%" stop-color="#3c3f5c" stop-opacity="1"></stop><stop offset="85.55555555555554%" stop-color="#515786" stop-opacity="1"></stop></linearGradient></defs><defs><linearGradient id="grad2_4" x1="0%" y1="0%" x2="56.3%" y2="100%"><stop offset="14.444444444444446%" stop-color="#3c3f5c" stop-opacity="1"></stop><stop offset="85.55555555555554%" stop-color="#272835" stop-opacity="1"></stop></linearGradient></defs><defs><linearGradient id="grad2_5" x1="0%" y1="0%" x2="56.3%" y2="100%"><stop offset="14.444444444444446%" stop-color="#121212" stop-opacity="1"></stop><stop offset="85.55555555555554%" stop-color="#272835" stop-opacity="1"></stop></linearGradient></defs><g transform="translate(2560, 0)"><path d="M0 1224C-50.1 1122.9 -100.2 1021.7 -182.3 1034C-264.5 1046.4 -378.7 1172.2 -397.1 1091C-415.5 1009.8 -338.2 721.5 -374 647.8C-409.8 574.1 -558.9 715 -599.7 714.7C-640.6 714.4 -573.2 572.9 -656.5 550.9C-739.8 528.8 -973.6 626.3 -1060 612C-1146.4 597.7 -1085.3 471.5 -1050.6 382.4C-1015.9 293.2 -1007.6 241.1 -1040.9 183.5C-1074.3 126 -1149.1 63 -1224 0L0 0Z" fill="#1d1d23"></path><path d="M0 1020C-41.7 935.7 -83.5 851.4 -151.9 861.7C-220.4 872 -315.6 976.8 -330.9 909.2C-346.3 841.5 -281.8 601.2 -311.7 539.8C-341.5 478.4 -465.7 595.9 -499.8 595.6C-533.8 595.3 -477.7 477.4 -547.1 459.1C-616.5 440.7 -811.4 521.9 -883.3 510C-955.3 498.1 -904.4 392.9 -875.5 318.6C-846.6 244.4 -839.7 200.9 -867.5 153C-895.2 105 -957.6 52.5 -1020 0L0 0Z" fill="#313348"></path><path d="M0 816C-33.4 748.6 -66.8 681.1 -121.6 689.4C-176.3 697.6 -252.4 781.5 -264.7 727.3C-277 673.2 -225.4 481 -249.3 431.9C-273.2 382.7 -372.6 476.7 -399.8 476.5C-427 476.3 -382.2 381.9 -437.7 367.2C-493.2 352.6 -649.1 417.6 -706.7 408C-764.3 398.4 -723.5 314.3 -700.4 254.9C-677.3 195.5 -671.8 160.7 -694 122.4C-716.2 84 -766.1 42 -816 0L0 0Z" fill="#464b70"></path><path d="M0 612C-25 561.4 -50.1 510.9 -91.2 517C-132.2 523.2 -189.3 586.1 -198.5 545.5C-207.8 504.9 -169.1 360.7 -187 323.9C-204.9 287.1 -279.4 357.5 -299.9 357.4C-320.3 357.2 -286.6 286.4 -328.3 275.4C-369.9 264.4 -486.8 313.2 -530 306C-573.2 298.8 -542.6 235.8 -525.3 191.2C-507.9 146.6 -503.8 120.6 -520.5 91.8C-537.1 63 -574.6 31.5 -612 0L0 0Z" fill="#5c649b"></path><path d="M0 408C-16.7 374.3 -33.4 340.6 -60.8 344.7C-88.2 348.8 -126.2 390.7 -132.4 363.7C-138.5 336.6 -112.7 240.5 -124.7 215.9C-136.6 191.4 -186.3 238.3 -199.9 238.2C-213.5 238.1 -191.1 191 -218.8 183.6C-246.6 176.3 -324.5 208.8 -353.3 204C-382.1 199.2 -361.8 157.2 -350.2 127.5C-338.6 97.7 -335.9 80.4 -347 61.2C-358.1 42 -383 21 -408 0L0 0Z" fill="#737ec9"></path><path d="M0 204C-8.3 187.1 -16.7 170.3 -30.4 172.3C-44.1 174.4 -63.1 195.4 -66.2 181.8C-69.3 168.3 -56.4 120.2 -62.3 108C-68.3 95.7 -93.1 119.2 -100 119.1C-106.8 119.1 -95.5 95.5 -109.4 91.8C-123.3 88.1 -162.3 104.4 -176.7 102C-191.1 99.6 -180.9 78.6 -175.1 63.7C-169.3 48.9 -167.9 40.2 -173.5 30.6C-179 21 -191.5 10.5 -204 0L0 0Z" fill="#7e8ce0"></path></g><g transform="translate(0, 1440)"><path d="M0 -1224C48.3 -1092.6 96.6 -961.1 166.7 -945.4C236.8 -929.7 328.7 -1029.7 357.4 -982C386.1 -934.3 351.5 -738.9 406 -703.2C460.5 -667.5 604.2 -791.5 649.2 -773.7C694.2 -755.9 640.5 -596.2 594.5 -498.8C548.4 -401.4 509.8 -366.3 660.8 -381.5C811.7 -396.7 1152.1 -462.3 1150.2 -418.6C1148.3 -374.9 804 -221.9 759.3 -133.9C714.5 -45.9 969.3 -22.9 1224 0L0 0Z" fill="#1d1d23"></path><path d="M0 -1020C40.2 -910.5 80.5 -800.9 138.9 -787.8C197.3 -774.7 274 -858.1 297.8 -818.3C321.7 -778.6 292.9 -615.7 338.3 -586C383.8 -556.3 503.5 -659.6 541 -644.8C578.5 -629.9 533.8 -496.8 495.4 -415.7C457 -334.5 424.9 -305.2 550.6 -317.9C676.4 -330.6 960.1 -385.3 958.5 -348.9C956.9 -312.4 670 -184.9 632.7 -111.6C595.4 -38.2 807.7 -19.1 1020 0L0 0Z" fill="#313348"></path><path d="M0 -816C32.2 -728.4 64.4 -640.8 111.1 -630.3C157.9 -619.8 219.2 -686.5 238.3 -654.7C257.4 -622.9 234.3 -492.6 270.7 -468.8C307 -445 402.8 -527.7 432.8 -515.8C462.8 -503.9 427 -397.5 396.3 -332.5C365.6 -267.6 339.9 -244.2 440.5 -254.3C541.1 -264.5 768.1 -308.2 766.8 -279.1C765.5 -249.9 536 -147.9 506.2 -89.3C476.4 -30.6 646.2 -15.3 816 0L0 0Z" fill="#464b70"></path><path d="M0 -612C24.1 -546.3 48.3 -480.6 83.4 -472.7C118.4 -464.8 164.4 -514.8 178.7 -491C193 -467.1 175.7 -369.4 203 -351.6C230.3 -333.8 302.1 -395.8 324.6 -386.9C347.1 -377.9 320.3 -298.1 297.2 -249.4C274.2 -200.7 254.9 -183.1 330.4 -190.8C405.9 -198.4 576.1 -231.2 575.1 -209.3C574.1 -187.5 402 -110.9 379.6 -66.9C357.3 -22.9 484.6 -11.5 612 0L0 0Z" fill="#5c649b"></path><path d="M0 -408C16.1 -364.2 32.2 -320.4 55.6 -315.1C78.9 -309.9 109.6 -343.2 119.1 -327.3C128.7 -311.4 117.2 -246.3 135.3 -234.4C153.5 -222.5 201.4 -263.8 216.4 -257.9C231.4 -252 213.5 -198.7 198.2 -166.3C182.8 -133.8 169.9 -122.1 220.3 -127.2C270.6 -132.2 384 -154.1 383.4 -139.5C382.8 -125 268 -74 253.1 -44.6C238.2 -15.3 323.1 -7.6 408 0L0 0Z" fill="#737ec9"></path><path d="M0 -204C8 -182.1 16.1 -160.2 27.8 -157.6C39.5 -154.9 54.8 -171.6 59.6 -163.7C64.3 -155.7 58.6 -123.1 67.7 -117.2C76.8 -111.3 100.7 -131.9 108.2 -129C115.7 -126 106.8 -99.4 99.1 -83.1C91.4 -66.9 85 -61 110.1 -63.6C135.3 -66.1 192 -77.1 191.7 -69.8C191.4 -62.5 134 -37 126.5 -22.3C119.1 -7.6 161.5 -3.8 204 0L0 0Z" fill="#7e8ce0"></path></g></svg>