<svg id="visual" viewBox="0 0 2560 1440" width="2560" height="1440" xmlns="http://www.w3.org/2000/svg" xmlns:xlink="http://www.w3.org/1999/xlink" version="1.1"><rect x="0" y="0" width="2560" height="1440" fill="#121212"></rect><g fill="#ffaf5f"><circle r="35" cx="2060" cy="105"></circle><circle r="3" cx="1941" cy="987"></circle><circle r="2" cx="763" cy="453"></circle><circle r="14" cx="1655" cy="328"></circle><circle r="27" cx="2461" cy="592"></circle><circle r="25" cx="1379" cy="829"></circle><circle r="24" cx="1869" cy="1302"></circle><circle r="24" cx="1930" cy="589"></circle><circle r="24" cx="2365" cy="1095"></circle><circle r="5" cx="414" cy="766"></circle><circle r="27" cx="2245" cy="888"></circle><circle r="29" cx="1148" cy="1041"></circle><circle r="11" cx="945" cy="1253"></circle><circle r="9" cx="850" cy="1281"></circle><circle r="28" cx="470" cy="646"></circle><circle r="2" cx="1582" cy="1004"></circle><circle r="11" cx="2167" cy="832"></circle><circle r="13" cx="898" cy="1046"></circle><circle r="20" cx="639" cy="1154"></circle><circle r="20" cx="2087" cy="853"></circle><circle r="6" cx="1888" cy="409"></circle><circle r="29" cx="23" cy="999"></circle><circle r="4" cx="321" cy="1199"></circle><circle r="26" cx="1474" cy="917"></circle><circle r="28" cx="1711" cy="854"></circle><circle r="27" cx="1248" cy="309"></circle><circle r="7" cx="164" cy="883"></circle><circle r="32" cx="158" cy="1326"></circle><circle r="16" cx="56" cy="799"></circle><circle r="3" cx="117" cy="386"></circle><circle r="28" cx="908" cy="352"></circle><circle r="28" cx="2540" cy="808"></circle><circle r="30" cx="921" cy="1396"></circle><circle r="10" cx="2386" cy="496"></circle><circle r="11" cx="2433" cy="52"></circle><circle r="19" cx="1308" cy="147"></circle><circle r="9" cx="129" cy="806"></circle><circle r="32" cx="360" cy="977"></circle><circle r="22" cx="2182" cy="526"></circle><circle r="30" cx="251" cy="1306"></circle><circle r="18" cx="761" cy="1341"></circle><circle r="10" cx="747" cy="948"></circle><circle r="17" cx="1947" cy="486"></circle><circle r="11" cx="224" cy="45"></circle><circle r="2" cx="2048" cy="491"></circle><circle r="13" cx="421" cy="184"></circle><circle r="10" cx="2340" cy="343"></circle><circle r="21" cx="1240" cy="61"></circle><circle r="14" cx="1700" cy="1269"></circle><circle r="28" cx="346" cy="294"></circle><circle r="22" cx="1075" cy="939"></circle><circle r="7" cx="229" cy="1237"></circle><circle r="12" cx="1363" cy="1360"></circle><circle r="32" cx="184" cy="642"></circle><circle r="15" cx="1405" cy="519"></circle><circle r="29" cx="706" cy="780"></circle><circle r="27" cx="2190" cy="1348"></circle><circle r="20" cx="572" cy="459"></circle><circle r="21" cx="2452" cy="1387"></circle><circle r="26" cx="37" cy="618"></circle><circle r="19" cx="692" cy="467"></circle><circle r="10" cx="75" cy="1372"></circle><circle r="18" cx="850" cy="1435"></circle><circle r="16" cx="1706" cy="387"></circle><circle r="28" cx="847" cy="968"></circle><circle r="4" cx="1682" cy="732"></circle><circle r="20" cx="1160" cy="9"></circle><circle r="2" cx="1156" cy="156"></circle><circle r="23" cx="1303" cy="685"></circle><circle r="21" cx="1786" cy="848"></circle><circle r="33" cx="1493" cy="405"></circle><circle r="16" cx="627" cy="508"></circle><circle r="9" cx="1699" cy="1083"></circle><circle r="29" cx="1634" cy="111"></circle></g></svg>